<?xml version="1.0" encoding="UTF-8"?>
<svg version="1.1" xmlns="http://www.w3.org/2000/svg" width="512" height="512">
<path d="M0 0 C38.9094177 19.711618 79.64815953 32.54319593 123.48950195 33.03417969 C132.81429277 33.22335812 141.92779719 34.55043885 149.3359375 40.6171875 C157.09207524 48.77976041 158.66486116 57.35090435 158.4765625 68.17578125 C158.18789785 73.77078142 156.29832914 77.92856643 153.125 82.5 C152.526875 83.428125 151.92875 84.35625 151.3125 85.3125 C144.80307137 91.82192863 137.29505169 94.69821993 128.17277527 94.80354309 C127.29462662 94.80263168 126.41647797 94.80172028 125.51171875 94.80078125 C124.58390091 94.80506638 123.65608307 94.8093515 122.70014954 94.81376648 C120.73589896 94.81949742 118.77162717 94.82001917 116.80737305 94.81567383 C113.86012493 94.81255047 110.91391836 94.83586009 107.96679688 94.86132812 C89.06509551 94.93216099 72.75184857 91.3721596 54.72149658 85.91708374 C49.48643909 84.33468706 44.24198409 82.78433082 38.99609375 81.23828125 C37.93128784 80.92437943 36.86648193 80.6104776 35.76940918 80.2870636 C22.85373286 76.50561887 9.834213 73.13045685 -3.20092773 69.7890625 C-4.04462418 69.57236404 -4.88832062 69.35566559 -5.75758362 69.13240051 C-7.3279191 68.72999061 -8.89887945 68.33000823 -10.4705658 67.9329071 C-15.65607052 66.60946474 -15.65607052 66.60946474 -17.875 65.5 C-18.12894531 66.68335938 -18.38289062 67.86671875 -18.64453125 69.0859375 C-20.43255095 77.3272096 -22.2691671 85.47079816 -24.875 93.5 C-23.79605469 93.72929199 -22.71710938 93.95858398 -21.60546875 94.19482422 C-10.25220271 96.64219554 0.93839344 99.51015247 12.125 102.625 C13.86243857 103.10492227 15.59990656 103.58473804 17.33740234 104.06445312 C25.84138594 106.42081237 34.32755133 108.83119026 42.7890625 111.3359375 C43.55321472 111.56209747 44.31736694 111.78825745 45.10467529 112.02127075 C48.68495415 113.08345768 52.26234124 114.15431484 55.8359375 115.23876953 C74.17594342 120.76831518 91.25144783 122.61903151 110.25 123.0625 C111.9869877 123.10577881 113.723967 123.14939578 115.4609375 123.19335938 C119.68220499 123.29947344 123.9035598 123.40100529 128.125 123.5 C126.79613158 127.48660526 124.17962948 129.01000194 120.9375 131.4375 C115.9165519 135.28461968 111.02443468 139.22585428 106.25 143.375 C74.68640166 170.63972516 48.24528383 186.14186668 5.125 184.5 C-0.68464973 184.06133595 -6.24279568 182.95816316 -11.875 181.5 C-13.05521729 181.20198486 -13.05521729 181.20198486 -14.25927734 180.89794922 C-37.20579124 174.99438475 -58.80130832 166.16020623 -80.14547729 155.99194336 C-125.86115952 134.22207561 -165.15753898 127.08587305 -216.875 124.5 C-216.875 87.21 -216.875 49.92 -216.875 11.5 C-198.08089831 0.9283178 -198.08089831 0.9283178 -189.375 -3 C-187.86232544 -3.68582153 -187.86232544 -3.68582153 -186.3190918 -4.38549805 C-168.65939627 -12.27332207 -150.60236257 -18.67634723 -131.875 -23.5 C-130.67230469 -23.81710937 -129.46960938 -24.13421875 -128.23046875 -24.4609375 C-81.69262188 -35.61235514 -41.13354222 -20.92975816 0 0 Z " fill="#000000" transform="translate(232.875,327.5)"/>
<path d="M0 0 C9.50111359 5.27839644 9.50111359 5.27839644 13.375 7.8125 C45.46609467 27.00809344 84.58103168 30.85472546 121 34 C121 43.9 121 53.8 121 64 C130.57 64 140.14 64 150 64 C150 54.1 150 44.2 150 34 C154.475625 33.5875 158.95125 33.175 163.5625 32.75 C201.80168936 29.01478718 237.16825601 20.51984 270 0 C270 41.25 270 82.5 270 125 C180.9 125 91.8 125 0 125 C0 83.75 0 42.5 0 0 Z " fill="#000000" transform="translate(106,145)"/>
<path d="M0 0 C0.85207031 0.32742187 1.70414063 0.65484375 2.58203125 0.9921875 C16.53116426 7.01118348 27.26882875 20.23295163 33 34 C35.45787754 41.12886472 36.23450769 47.34507692 37 55 C61.42 55.33 85.84 55.66 111 56 C111.0825 62.249375 111.165 68.49875 111.25 74.9375 C111.28641602 76.89163818 111.32283203 78.84577637 111.36035156 80.85913086 C111.37205158 82.43602404 111.38224028 84.01292946 111.390625 85.58984375 C111.41108887 86.38588013 111.43155273 87.1819165 111.45263672 88.0020752 C111.45904432 98.48331198 106.13926618 106.58522677 99.10546875 113.99609375 C80.74749703 131.46852323 53.52481849 137.96925551 29.3125 142.25 C28.46042969 142.40098145 27.60835937 142.55196289 26.73046875 142.70751953 C9.98763923 145.47820792 -6.61064591 146.37639725 -23.5625 146.3125 C-24.57024475 146.31067719 -25.5779895 146.30885437 -26.61627197 146.30697632 C-67.39867965 146.18306057 -117.28439347 141.45685139 -148.9375 112.625 C-156.46777547 104.60647724 -159.16607503 95.99606331 -159.09765625 85.296875 C-159.09664917 84.5538916 -159.09564209 83.8109082 -159.09460449 83.04541016 C-159.08938776 80.28025765 -159.0754265 77.51512721 -159.0625 74.75 C-159.041875 68.5625 -159.02125 62.375 -159 56 C-134.25 56 -109.5 56 -84 56 C-84 52.37 -84 48.74 -84 45 C-80.96208343 28.8454319 -71.63090246 15.31063352 -58.51953125 5.59765625 C-41.21299898 -5.37656344 -19.0477222 -8.20600871 0 0 Z M-43 33 C-47.79972892 37.28661759 -51.28372552 42.78102894 -53 49 C-53 51.31 -53 53.62 -53 56 C-33.86 56 -14.72 56 5 56 C5 46.51157614 2.38007087 40.63214044 -4.08984375 33.72265625 C-15.37266768 23.54734878 -31.14495354 24.42158826 -43 33 Z " fill="#000000" transform="translate(265,4)"/>
<path d="M0 0 C1.58203125 1.7109375 1.58203125 1.7109375 1.58203125 5.7109375 C0.41072845 7.37443161 0.41072845 7.37443161 -1.26525879 9.03924561 C-1.89632034 9.67580582 -2.5273819 10.31236603 -3.17756653 10.96821594 C-3.87887192 11.65514023 -4.58017731 12.34206451 -5.30273438 13.04980469 C-6.03425217 13.78190659 -6.76576996 14.51400848 -7.51945496 15.26829529 C-9.94501728 17.69106605 -12.38445086 20.09935441 -14.82421875 22.5078125 C-16.50660637 24.18274161 -18.1881143 25.85855477 -19.86877441 27.53521729 C-24.29879113 31.94994726 -28.74068798 36.35253516 -33.18511963 40.75274658 C-37.71655159 45.24329192 -42.23670856 49.74515449 -46.7578125 54.24609375 C-55.63349741 63.07885405 -64.52139014 71.8992248 -73.41796875 80.7109375 C-75.31407517 77.86677787 -76.38227136 75.3837362 -77.60546875 72.2109375 C-83.87574672 57.00413434 -92.78253102 47.21587275 -107.41796875 39.7109375 C-111.6954882 38.11190667 -115.9877813 36.81304632 -120.41796875 35.7109375 C-120.41796875 32.7109375 -120.41796875 32.7109375 -119.01953125 31.203125 C-118.36726563 30.66945313 -117.715 30.13578125 -117.04296875 29.5859375 C-113.77706031 26.85088343 -110.57344685 24.07333714 -107.41796875 21.2109375 C-103.79834345 17.94444638 -100.15118557 14.71491122 -96.46875 11.51953125 C-94.99187622 10.21706923 -93.53297082 8.89413036 -92.0859375 7.55859375 C-63.7225809 -18.57142768 -32.11951148 -23.96306811 0 0 Z " fill="#000000" transform="translate(493.41796875,298.2890625)"/>
</svg>
