<?xml version="1.0" encoding="UTF-8"?>
<svg version="1.1" xmlns="http://www.w3.org/2000/svg" width="500" height="500">
<path d="M0 0 C1.68283836 -0.01818031 1.68283836 -0.01818031 3.39967346 -0.03672791 C7.07641124 -0.06801019 10.75140838 -0.05566693 14.42822266 -0.03979492 C17.00453138 -0.04638519 19.58083639 -0.05460604 22.15713501 -0.06437683 C27.54525907 -0.07770058 32.93273266 -0.06946666 38.32080078 -0.04492188 C44.51687658 -0.01714289 50.71150553 -0.03646554 56.90745962 -0.07979757 C62.90746552 -0.12011981 68.90675292 -0.12071197 74.90690994 -0.10553551 C77.44165001 -0.10339298 79.97642318 -0.11178979 82.51108932 -0.13126564 C107.21332404 -0.28896358 107.21332404 -0.28896358 118.21728516 7.79223633 C119.6037378 8.52869455 121.00310146 9.24251325 122.42431641 9.90942383 C123.02244141 10.20171875 123.62056641 10.49401367 124.23681641 10.79516602 C125.12433594 11.22684082 125.12433594 11.22684082 126.02978516 11.66723633 C132.35719092 14.78441417 138.52439531 18.13061866 144.63842773 21.6472168 C149.98584058 24.71431145 155.4231129 27.53408694 161.04541016 30.06567383 C161.84462891 30.42918945 162.64384766 30.79270508 163.46728516 31.16723633 C164.27681641 31.5255957 165.08634766 31.88395508 165.92041016 32.25317383 C169.01865449 34.3292083 170.83884649 36.35678445 172.21728516 39.79223633 C172.81607124 44.25533524 172.75219309 48.69159859 172.7184906 53.18887329 C172.72238488 54.57143805 172.72802635 55.9539988 172.7352615 57.33655012 C172.7500172 61.1308982 172.73983432 64.92483132 172.72552478 68.71916604 C172.71441881 72.81341864 172.72635663 76.90761284 172.73536682 81.00186157 C172.7493061 89.02226637 172.74173697 97.0425138 172.72669124 105.06291111 C172.70982887 114.40782822 172.71304193 123.75270614 172.71678532 133.09763376 C172.72266567 149.77858124 172.70848812 166.45945327 172.68383789 183.14038086 C172.65993975 199.31423779 172.65282442 215.48799382 172.66333008 231.66186523 C172.67475249 249.27863372 172.67665121 266.89535553 172.66223198 284.51212347 C172.66070619 286.39281106 172.65918583 288.27349865 172.65767097 290.15418625 C172.65691316 291.07946883 172.65615535 292.0047514 172.65537457 292.95807285 C172.65064015 299.46573469 172.65247737 305.97337563 172.65673637 312.48103714 C172.66167541 320.42084669 172.65562437 328.36056102 172.63584208 336.30034883 C172.62600332 340.34840547 172.62082767 344.39631747 172.62873459 348.44438171 C172.63583722 352.1568282 172.62888083 355.86898404 172.61113096 359.58139245 C172.60522684 361.54661241 172.6138651 363.51185987 172.62317747 365.47706664 C172.52285399 379.62959099 169.25307197 392.75925139 159.73681641 403.62426758 C146.39008773 416.47025318 132.80268444 419.09570928 115.00170898 419.08276367 C113.35661516 419.0887547 111.71152414 419.09556157 110.06643677 419.1031189 C105.61368515 419.12072991 101.16101048 419.12547227 96.7082274 419.12675047 C93.92071316 419.12817567 91.13321826 419.1324523 88.34570885 419.1377449 C78.60489035 419.15623062 68.86412647 419.16441755 59.12329102 419.1628418 C50.06990561 419.16164155 41.01675905 419.18272473 31.96343404 419.21432912 C24.16949216 419.24055914 16.37562796 419.25120625 8.58164233 419.24993098 C3.93613094 419.24942322 -0.70916815 419.25500252 -5.35463524 419.27628708 C-9.72882852 419.29578262 -14.10260947 419.29571739 -18.47681808 419.28125381 C-20.07263994 419.2791784 -21.66848838 419.28379005 -23.26426506 419.29597473 C-35.32912834 419.38205239 -46.83012688 418.07145846 -57.09521484 411.16723633 C-57.99884766 410.5768457 -58.90248047 409.98645508 -59.83349609 409.37817383 C-60.47673828 408.85481445 -61.11998047 408.33145508 -61.78271484 407.79223633 C-61.78271484 407.13223633 -61.78271484 406.47223633 -61.78271484 405.79223633 C-62.38212891 405.5215332 -62.98154297 405.25083008 -63.59912109 404.97192383 C-71.09258154 400.92357847 -74.23864031 392.47976591 -76.78271484 384.79223633 C-78.77031696 377.77924713 -79.11833398 371.01733155 -79.19677734 363.75708008 C-79.22582657 362.07818443 -79.22582657 362.07818443 -79.25546265 360.3653717 C-79.31483707 356.82023537 -79.36147456 353.27506583 -79.40771484 349.72973633 C-79.44593342 347.31370721 -79.48498736 344.89769114 -79.52490234 342.48168945 C-79.62050362 336.58532174 -79.70567224 330.68887418 -79.78271484 324.79223633 C-80.40146484 325.28723633 -81.02021484 325.78223633 -81.65771484 326.29223633 C-83.78271484 327.79223633 -83.78271484 327.79223633 -85.78271484 327.79223633 C-85.98251953 328.32204102 -86.18232422 328.8518457 -86.38818359 329.39770508 C-88.77708343 333.49965353 -92.40696003 336.49295965 -95.81982422 339.7512207 C-98.73039039 342.58158758 -101.2749668 345.35580221 -103.57568359 348.71020508 C-104.30400391 349.72727539 -105.03232422 350.7443457 -105.78271484 351.79223633 C-106.44271484 351.79223633 -107.10271484 351.79223633 -107.78271484 351.79223633 C-107.78271484 352.45223633 -107.78271484 353.11223633 -107.78271484 353.79223633 C-108.44271484 353.79223633 -109.10271484 353.79223633 -109.78271484 353.79223633 C-109.78271484 354.45223633 -109.78271484 355.11223633 -109.78271484 355.79223633 C-110.44271484 355.79223633 -111.10271484 355.79223633 -111.78271484 355.79223633 C-112.44271484 357.11223633 -113.10271484 358.43223633 -113.78271484 359.79223633 C-114.44271484 359.79223633 -115.10271484 359.79223633 -115.78271484 359.79223633 C-116.00958984 360.34911133 -116.23646484 360.90598633 -116.47021484 361.47973633 C-118.15821521 364.4538322 -120.24948001 366.51232498 -122.78271484 368.79223633 C-123.44271484 368.79223633 -124.10271484 368.79223633 -124.78271484 368.79223633 C-124.78271484 369.45223633 -124.78271484 370.11223633 -124.78271484 370.79223633 C-125.44271484 370.79223633 -126.10271484 370.79223633 -126.78271484 370.79223633 C-126.78271484 371.45223633 -126.78271484 372.11223633 -126.78271484 372.79223633 C-136.72072775 380.5826278 -151.02681631 388.8623293 -163.78271484 389.79223633 C-164.75080078 389.8721582 -165.71888672 389.95208008 -166.71630859 390.03442383 C-186.24021711 390.84692431 -204.12391963 382.20289081 -218.78271484 369.79223633 C-229.28459759 360.12251545 -235.55456715 347.47314577 -236.15771484 333.16723633 C-235.81891832 316.37563368 -227.41769191 301.4098218 -215.78271484 289.79223633 C-193.37516672 265.0130864 -185.26197777 235.5101944 -184.78271484 202.79223633 C-185.44271484 202.79223633 -186.10271484 202.79223633 -186.78271484 202.79223633 C-186.78271484 202.13223633 -186.78271484 201.47223633 -186.78271484 200.79223633 C-187.44271484 200.79223633 -188.10271484 200.79223633 -188.78271484 200.79223633 C-190.90771484 198.91723633 -190.90771484 198.91723633 -192.78271484 196.79223633 C-192.78271484 196.13223633 -192.78271484 195.47223633 -192.78271484 194.79223633 C-193.44271484 194.79223633 -194.10271484 194.79223633 -194.78271484 194.79223633 C-194.78271484 194.13223633 -194.78271484 193.47223633 -194.78271484 192.79223633 C-195.44271484 192.79223633 -196.10271484 192.79223633 -196.78271484 192.79223633 C-200.10926173 187.68697664 -201.2796595 184.48844999 -201.20849609 178.24926758 C-201.20520798 177.55838547 -201.20191986 176.86750336 -201.1985321 176.15568542 C-201.18292005 173.97137242 -201.13893653 171.78864675 -201.09521484 169.60473633 C-201.08370844 168.12883741 -201.07392774 166.65292398 -201.06591797 165.17700195 C-200.95551603 153.54791521 -200.95551603 153.54791521 -199.78271484 149.79223633 C-199.12271484 149.79223633 -198.46271484 149.79223633 -197.78271484 149.79223633 C-197.78271484 149.13223633 -197.78271484 148.47223633 -197.78271484 147.79223633 C-194.40572696 145.75050098 -191.83725262 145.55698594 -187.92333984 145.59692383 C-186.80830078 145.60336914 -185.69326172 145.60981445 -184.54443359 145.61645508 C-183.38556641 145.63321289 -182.22669922 145.6499707 -181.03271484 145.66723633 C-179.85837891 145.67625977 -178.68404297 145.6852832 -177.47412109 145.69458008 C-174.57677948 145.7181357 -171.67985043 145.7510298 -168.78271484 145.79223633 C-168.89749898 143.72914257 -169.02497683 141.66675279 -169.15771484 139.60473633 C-169.22732422 138.45618164 -169.29693359 137.30762695 -169.36865234 136.12426758 C-169.75781058 132.99264516 -170.46369995 130.63937824 -171.78271484 127.79223633 C-177.22673277 127.19834346 -179.88044699 127.52421037 -184.34521484 130.79223633 C-187.36124659 132.97250024 -188.77875756 133.79144487 -192.53271484 134.54223633 C-196.06573138 133.72692482 -197.83947059 132.62535487 -199.95458984 129.63598633 C-201.21515142 126.82945301 -201.2311501 124.73078147 -200.59912109 121.74145508 C-198.13312001 115.85373001 -192.30746111 113.39193447 -186.78271484 110.91723633 C-179.70955088 108.19340921 -174.24709454 108.05438348 -167.13427734 110.60864258 C-162.40156399 112.99072255 -156.75845541 116.85993266 -155.03271484 122.04614258 C-154.95021484 122.62235352 -154.86771484 123.19856445 -154.78271484 123.79223633 C-154.12271484 123.79223633 -153.46271484 123.79223633 -152.78271484 123.79223633 C-150.44841904 130.27412755 -150.46004011 136.45450399 -150.44677734 143.29614258 C-150.43679214 145.09111427 -150.43679214 145.09111427 -150.42660522 146.92234802 C-150.41650772 149.4446357 -150.4117873 151.96694994 -150.41210938 154.48925781 C-150.40772562 158.34525354 -150.37134378 162.20011391 -150.33349609 166.0559082 C-150.32762949 168.51098243 -150.32365905 170.96606207 -150.32177734 173.42114258 C-150.30740631 174.57127335 -150.29303528 175.72140411 -150.27822876 176.90638733 C-150.3263631 185.3398626 -151.75573533 188.47697305 -157.40771484 194.66723633 C-159.78271484 196.79223633 -159.78271484 196.79223633 -161.78271484 196.79223633 C-162.05083984 197.34911133 -162.31896484 197.90598633 -162.59521484 198.47973633 C-163.78271484 200.79223633 -163.78271484 200.79223633 -165.34912109 203.02661133 C-167.10301545 206.41014595 -167.05427828 208.5656404 -166.90771484 212.35473633 C-166.39950058 239.57243354 -175.28046032 267.95667475 -192.11865234 289.55786133 C-193.62405956 291.57920623 -194.74360882 293.50410388 -195.78271484 295.79223633 C-196.44271484 295.79223633 -197.10271484 295.79223633 -197.78271484 295.79223633 C-198.01345703 296.3362207 -198.24419922 296.88020508 -198.48193359 297.44067383 C-200.15781195 300.47033981 -202.30864444 302.81870504 -204.59521484 305.41723633 C-208.96021259 310.51025557 -212.20229728 315.56092229 -214.78271484 321.79223633 C-215.21583984 322.76161133 -215.64896484 323.73098633 -216.09521484 324.72973633 C-218.18061464 334.0192445 -216.77225626 341.20482781 -212.01708984 349.49145508 C-204.52019431 360.5664144 -190.5788928 367.72573904 -177.78271484 370.79223633 C-167.33415488 371.98384881 -159.26186166 369.82591583 -149.78271484 365.79223633 C-149.78271484 365.13223633 -149.78271484 364.47223633 -149.78271484 363.79223633 C-151.57085549 362.39887998 -153.41413398 361.07570601 -155.28271484 359.79223633 C-157.15129571 358.50876664 -158.9945742 357.18559268 -160.78271484 355.79223633 C-160.78271484 355.13223633 -160.78271484 354.47223633 -160.78271484 353.79223633 C-161.44271484 353.79223633 -162.10271484 353.79223633 -162.78271484 353.79223633 C-167.56714709 343.50570699 -169.99236834 334.15266831 -166.64990234 323.01879883 C-165.4604148 319.88534879 -164.19585742 316.83049286 -162.78271484 313.79223633 C-162.12271484 313.79223633 -161.46271484 313.79223633 -160.78271484 313.79223633 C-160.55970703 313.20700195 -160.33669922 312.62176758 -160.10693359 312.01879883 C-156.93038702 306.67770281 -149.81446247 303.61206432 -144.22021484 301.35473633 C-133.21998022 299.55469793 -124.23648015 301.15731134 -114.97021484 307.47973633 C-110.44958 310.94384887 -107.02864454 314.50623605 -104.78271484 319.79223633 C-104.78271484 320.45223633 -104.78271484 321.11223633 -104.78271484 321.79223633 C-104.12271484 321.79223633 -103.46271484 321.79223633 -102.78271484 321.79223633 C-102.78271484 321.13223633 -102.78271484 320.47223633 -102.78271484 319.79223633 C-102.12271484 319.79223633 -101.46271484 319.79223633 -100.78271484 319.79223633 C-100.51845703 319.18992187 -100.25419922 318.58760742 -99.98193359 317.96704102 C-98.72704491 315.69127791 -97.62658257 314.58164105 -95.59521484 312.99536133 C-94.97904297 312.51196289 -94.36287109 312.02856445 -93.72802734 311.53051758 C-93.08607422 311.03938477 -92.44412109 310.54825195 -91.78271484 310.04223633 C-91.14076172 309.53563477 -90.49880859 309.0290332 -89.83740234 308.50708008 C-85.05116161 304.79223633 -85.05116161 304.79223633 -82.78271484 304.79223633 C-82.78271484 304.13223633 -82.78271484 303.47223633 -82.78271484 302.79223633 C-81.46271484 302.46223633 -80.14271484 302.13223633 -78.78271484 301.79223633 C-78.78499317 300.96407774 -78.78499317 300.96407774 -78.78731751 300.11918867 C-78.87681684 267.4017717 -78.94545448 234.68438541 -78.98697616 201.96687349 C-78.99197903 198.03903199 -78.99715631 194.11119074 -79.00244141 190.18334961 C-79.00349065 189.4013824 -79.00453989 188.61941519 -79.00562093 187.81375201 C-79.02302934 175.14984153 -79.05456942 162.48600362 -79.09132603 149.82213621 C-79.12872333 136.82922918 -79.15094813 123.83636019 -79.15906882 110.84340155 C-79.16455912 102.82508814 -79.18190381 94.80697989 -79.21438071 86.78872962 C-79.23801081 80.64180082 -79.24053774 74.49502863 -79.23514557 68.34806061 C-79.23624788 65.82530325 -79.24422916 63.30253827 -79.25953674 60.77982712 C-79.27939085 57.33969585 -79.27466985 53.90044765 -79.26373291 50.46029663 C-79.27538428 49.45834523 -79.28703564 48.45639382 -79.29904008 47.42408025 C-79.24859933 41.56820681 -78.66645735 38.26242774 -74.78271484 33.79223633 C-72.59130859 32.32348633 -72.59130859 32.32348633 -70.22021484 31.29223633 C-66.60078667 29.630254 -63.08038541 27.90958451 -59.59521484 25.97973633 C-49.38633251 20.37345403 -39.1359129 14.8834031 -28.67651367 9.75756836 C-28.06702881 9.45705566 -27.45754395 9.15654297 -26.82958984 8.84692383 C-26.22722818 8.55262073 -25.62486652 8.25831762 -25.00425148 7.95509624 C-22.72239475 6.7956989 -22.72239475 6.7956989 -20.39549828 5.30693531 C-13.42303123 1.08095638 -8.08014003 -0.08262747 0 0 Z M6.21728516 17.79223633 C7.55249626 23.80068627 8.47233725 27.78890346 10.84228516 33.10473633 C20.76412646 57.09840485 24.1587207 81.17675904 27.21728516 106.79223633 C40.08728516 106.79223633 52.95728516 106.79223633 66.21728516 106.79223633 C66.62978516 103.28598633 67.04228516 99.77973633 67.46728516 96.16723633 C68.02650929 91.70558049 68.61693762 87.24853415 69.21728516 82.79223633 C69.40218506 81.40004883 69.40218506 81.40004883 69.59082031 79.97973633 C72.39053237 59.83080458 79.39527165 40.86069672 86.51806641 21.890625 C87.3226613 19.84463397 87.3226613 19.84463397 87.21728516 17.79223633 C60.48728516 17.79223633 33.75728516 17.79223633 6.21728516 17.79223633 Z M105.21728516 21.79223633 C104.80736328 22.82864258 104.39744141 23.86504883 103.97509766 24.93286133 C103.43091925 26.30268972 102.88664329 27.67247935 102.34228516 29.04223633 C102.07287109 29.72415039 101.80345703 30.40606445 101.52587891 31.10864258 C100.44460771 33.82500679 99.36608332 36.50247149 98.02978516 39.10473633 C96.93420616 41.38016963 97.07906176 43.30421519 97.21728516 45.79223633 C96.55728516 45.79223633 95.89728516 45.79223633 95.21728516 45.79223633 C94.09107673 49.95857732 92.96653685 54.12536694 91.84228516 58.29223633 C91.52517578 59.4652832 91.20806641 60.63833008 90.88134766 61.84692383 C89.98777962 65.16057197 89.1010279 68.47595603 88.21728516 71.79223633 C87.90380127 72.94997559 87.90380127 72.94997559 87.58398438 74.13110352 C86.37047831 78.74718541 85.62430399 83.30989592 85.09228516 88.04223633 C85.00881836 88.77877441 84.92535156 89.5153125 84.83935547 90.27416992 C83.88703173 99.20852143 83.5209137 107.12532807 86.21728516 115.79223633 C86.7719043 115.80681885 87.32652344 115.82140137 87.89794922 115.83642578 C90.42174758 115.9111053 92.9442517 116.00769658 95.46728516 116.10473633 C96.33998047 116.12729492 97.21267578 116.14985352 98.11181641 116.1730957 C104.54596447 116.44323169 104.54596447 116.44323169 107.77197266 118.12036133 C110.09703778 120.80989612 110.09554007 123.32250131 110.21728516 126.79223633 C109.11520507 130.19031659 108.2963064 130.7395555 105.21728516 132.79223633 C103.13256836 133.11108398 103.13256836 133.11108398 100.76806641 133.20629883 C99.92050781 133.2449707 99.07294922 133.28364258 98.19970703 133.32348633 C97.31863281 133.35442383 96.43755859 133.38536133 95.52978516 133.41723633 C94.63710938 133.4559082 93.74443359 133.49458008 92.82470703 133.53442383 C90.62243896 133.62863851 88.42017794 133.71425221 86.21728516 133.79223633 C86.19039299 135.27130525 86.17093894 136.75051116 86.15478516 138.22973633 C86.14318359 139.05344727 86.13158203 139.8771582 86.11962891 140.72583008 C85.98461168 142.78387571 85.98461168 142.78387571 87.21728516 143.79223633 C88.59665787 143.91242445 89.9814822 143.97166783 91.36572266 144.00317383 C92.20619141 144.0315332 93.04666016 144.05989258 93.91259766 144.08911133 C95.69103869 144.14096092 97.46971541 144.18530107 99.24853516 144.22192383 C100.09158203 144.25286133 100.93462891 144.28379883 101.80322266 144.31567383 C102.57714355 144.33549316 103.35106445 144.3553125 104.1484375 144.37573242 C106.71451128 144.89233873 107.61494955 145.75949687 109.21728516 147.79223633 C110.06151013 151.0466914 110.21728516 154.43221334 110.21728516 157.79223633 C109.55728516 157.79223633 108.89728516 157.79223633 108.21728516 157.79223633 C108.21728516 158.45223633 108.21728516 159.11223633 108.21728516 159.79223633 C105.40981061 160.57178213 102.79698708 160.96325123 99.88916016 161.10864258 C98.69033203 161.17148437 98.69033203 161.17148437 97.46728516 161.2355957 C96.64228516 161.27491211 95.81728516 161.31422852 94.96728516 161.35473633 C94.12681641 161.39791992 93.28634766 161.44110352 92.42041016 161.4855957 C90.35287845 161.59132176 88.28510235 161.69224928 86.21728516 161.79223633 C85.92853516 162.76161133 85.63978516 163.73098633 85.34228516 164.72973633 C84.21728516 167.79223633 84.21728516 167.79223633 82.21728516 168.79223633 C82.14141058 176.01873065 82.08875965 183.24512282 82.05249023 190.47192383 C82.03737528 192.93192381 82.01688289 195.39189674 81.9909668 197.85180664 C81.95470286 201.38149685 81.93758602 204.91083177 81.92431641 208.44067383 C81.90883255 209.545914 81.89334869 210.65115417 81.87739563 211.78988647 C81.87716904 212.81079376 81.87694244 213.83170105 81.87670898 214.88354492 C81.87004715 215.78511322 81.86338531 216.68668152 81.85652161 217.61557007 C81.97557358 218.33386993 82.09462555 219.0521698 82.21728516 219.79223633 C83.20728516 220.45223633 84.19728516 221.11223633 85.21728516 221.79223633 C86.40478516 224.91723633 86.40478516 224.91723633 87.21728516 227.79223633 C88.45865234 227.80641602 89.70001953 227.8205957 90.97900391 227.83520508 C92.62096759 227.88211833 94.26289353 227.93036565 95.90478516 227.97973633 C97.1297168 227.9884375 97.1297168 227.9884375 98.37939453 227.99731445 C102.76352236 228.15706 104.69550489 228.38752215 108.26416016 231.15551758 C110.21728516 233.79223633 110.21728516 233.79223633 110.77978516 236.79223633 C110.04731482 240.6987448 109.17891878 242.10589698 106.21728516 244.79223633 C102.8085755 245.55761877 99.45089864 245.58278078 95.96728516 245.60473633 C95.03142578 245.62987305 94.09556641 245.65500977 93.13134766 245.6809082 C90.82711106 245.73968975 88.52215273 245.76884745 86.21728516 245.79223633 C86.21728516 249.09223633 86.21728516 252.39223633 86.21728516 255.79223633 C87.61462891 255.80641602 89.01197266 255.8205957 90.45166016 255.83520508 C92.29023478 255.88210749 94.12877544 255.93035487 95.96728516 255.97973633 C97.34787109 255.9884375 97.34787109 255.9884375 98.75634766 255.99731445 C105.55778639 256.2191005 105.55778639 256.2191005 108.84228516 259.07348633 C110.83868634 263.02091595 110.51305231 265.42967079 110.21728516 269.79223633 C109.55728516 269.79223633 108.89728516 269.79223633 108.21728516 269.79223633 C108.21728516 270.45223633 108.21728516 271.11223633 108.21728516 271.79223633 C105.49226608 272.70057602 103.59494545 272.97583618 100.76806641 273.10864258 C99.92050781 273.15053711 99.07294922 273.19243164 98.19970703 273.2355957 C97.31863281 273.27491211 96.43755859 273.31422852 95.52978516 273.35473633 C94.63710938 273.39791992 93.74443359 273.44110352 92.82470703 273.4855957 C90.62238407 273.59158986 88.41995042 273.69365683 86.21728516 273.79223633 C85.88728516 276.10223633 85.55728516 278.41223633 85.21728516 280.79223633 C84.22728516 281.12223633 83.23728516 281.45223633 82.21728516 281.79223633 C84.04153478 296.67427273 87.40538782 307.24400992 97.21728516 318.79223633 C98.14347656 319.92338867 98.14347656 319.92338867 99.08837891 321.07739258 C108.87109032 331.9961608 123.26253238 335.76167513 137.27978516 337.35473633 C139.41669535 337.60440528 141.55342202 337.85565113 143.68994141 338.10864258 C144.6310376 338.21635986 145.57213379 338.32407715 146.54174805 338.43505859 C149.1313343 338.7807621 151.65878065 339.26833876 154.21728516 339.79223633 C154.54215343 327.04044614 154.7906572 314.28964495 154.94265556 301.53455448 C155.01562378 295.61106447 155.11451501 289.69041152 155.2734375 283.76855469 C155.42595159 278.04947174 155.50933834 272.33311011 155.54556656 266.61215019 C155.57136869 264.43373188 155.62176331 262.25545724 155.69750595 260.0782032 C156.5412614 248.99161166 156.5412614 248.99161166 152.82468414 238.97867966 C148.26929467 234.86953453 142.98660096 232.7153416 137.21728516 230.79223633 C136.21337891 228.99145508 136.21337891 228.99145508 135.21728516 226.79223633 C134.25236495 225.38651692 133.27224491 223.99114957 132.27978516 222.60473633 C129.29050093 218.19371936 127.64110829 213.89341561 126.21728516 208.79223633 C125.88728516 207.80223633 125.55728516 206.81223633 125.21728516 205.79223633 C125.11618734 204.29075663 125.0695215 202.78528097 125.05665588 201.28045654 C125.04661026 200.35562469 125.03656464 199.43079285 125.0262146 198.47793579 C125.02038361 197.46500458 125.01455261 196.45207336 125.00854492 195.40844727 C124.99386925 193.80533188 124.99386925 193.80533188 124.97889709 192.16983032 C124.94891532 188.6221033 124.92754101 185.07441436 124.90869141 181.52661133 C124.90211958 180.31243782 124.89554775 179.09826431 124.88877678 177.84729767 C124.85615925 171.41098699 124.83172308 164.97469295 124.81225586 158.53833008 C124.79449863 153.22883708 124.75977039 147.91988075 124.7097168 142.6105957 C124.64924098 136.18797737 124.61874094 129.76585366 124.60908318 123.34296417 C124.60056783 120.9047292 124.5818479 118.46650603 124.55233955 116.02843475 C124.35540931 98.82026631 125.19085632 85.20344354 136.60400391 71.42895508 C138.21728516 69.79223633 138.21728516 69.79223633 141.21728516 67.79223633 C141.21728516 67.13223633 141.21728516 66.47223633 141.21728516 65.79223633 C141.87728516 65.56536133 142.53728516 65.33848633 143.21728516 65.10473633 C144.20728516 64.67161133 145.19728516 64.23848633 146.21728516 63.79223633 C146.91466797 63.52024414 147.61205078 63.24825195 148.33056641 62.96801758 C150.80253522 61.78691703 152.40750332 60.86621989 154.21728516 58.79223633 C154.9139082 54.71353499 154.68776353 50.88931881 154.21728516 46.79223633 C143.25838246 40.97525652 132.26406489 35.25175723 121.14453125 29.74780273 C117.83098565 28.10488185 114.52454272 26.44776802 111.21728516 24.79223633 C110.06228516 24.21473633 108.90728516 23.63723633 107.71728516 23.04223633 C106.47978516 22.42348633 106.47978516 22.42348633 105.21728516 21.79223633 Z M-21.88427734 26.68481445 C-25.03190662 28.38665766 -28.131544 29.94141407 -31.42724609 31.35083008 C-34.59261564 32.71057555 -37.40648775 34.25308242 -40.34521484 36.04223633 C-46.98761922 39.9906364 -53.83985541 43.41324113 -60.78271484 46.79223633 C-61.46226434 50.97249534 -61.73861433 54.64311583 -60.78271484 58.79223633 C-57.42206341 62.1197779 -52.71175677 65.79223633 -47.78271484 65.79223633 C-47.78271484 66.45223633 -47.78271484 67.11223633 -47.78271484 67.79223633 C-45.44938151 70.45890299 -45.44938151 70.45890299 -42.78271484 72.79223633 C-42.12271484 72.79223633 -41.46271484 72.79223633 -40.78271484 72.79223633 C-40.50427734 73.51926758 -40.22583984 74.24629883 -39.93896484 74.99536133 C-38.51886881 78.43045849 -36.77398738 81.63757592 -35.00146484 84.90161133 C-31.9167047 92.21802961 -31.49020875 99.53118273 -31.52392578 107.38574219 C-31.52042114 108.40487198 -31.5169165 109.42400177 -31.51330566 110.47401428 C-31.50455581 113.81844035 -31.5103141 117.16265213 -31.51708984 120.50708008 C-31.51574115 122.84680725 -31.51379892 125.18653416 -31.5112915 127.52626038 C-31.50834928 132.42085447 -31.51260851 137.31537538 -31.52197266 142.20996094 C-31.53336023 148.46509353 -31.52680627 154.72005434 -31.51482773 160.97518063 C-31.5075794 165.80433939 -31.50991081 170.63345785 -31.51508331 175.46261787 C-31.51641192 177.76816389 -31.51479992 180.07371364 -31.51012421 182.37925529 C-31.50501074 185.60937989 -31.51283699 188.83923152 -31.52392578 192.06933594 C-31.51987732 193.01042206 -31.51582886 193.95150818 -31.51165771 194.92111206 C-31.56623352 203.55934098 -32.59512984 211.40293463 -36.88037109 219.00317383 C-37.84231204 220.91039874 -38.33761693 222.70899454 -38.78271484 224.79223633 C-39.44271484 224.79223633 -40.10271484 224.79223633 -40.78271484 224.79223633 C-41.82768842 225.96189425 -42.81881084 227.17991724 -43.78271484 228.41723633 C-48.35410151 233.82414955 -54.0629384 237.55231085 -60.78271484 239.79223633 C-60.78271484 257.28223633 -60.78271484 274.77223633 -60.78271484 292.79223633 C-58.14271484 292.13223633 -55.50271484 291.47223633 -52.78271484 290.79223633 C-45.39432568 289.47819396 -35.92051969 287.98623311 -28.95458984 291.02661133 C-26.78271484 292.79223633 -26.78271484 292.79223633 -26.18896484 294.94848633 C-26.23537109 296.10864258 -26.23537109 296.10864258 -26.28271484 297.29223633 C-26.29302734 298.06567383 -26.30333984 298.83911133 -26.31396484 299.63598633 C-26.88553529 302.26521037 -27.67296352 303.16016455 -29.78271484 304.79223633 C-33.06368616 305.88589343 -35.70534859 305.96896912 -39.15771484 306.10473633 C-50.73701633 306.78914865 -50.73701633 306.78914865 -60.78271484 311.79223633 C-60.87038597 313.86485709 -60.88967357 315.94043927 -60.88037109 318.01489258 C-60.87714844 319.27495117 -60.87392578 320.53500977 -60.87060547 321.83325195 C-60.86224888 323.17374742 -60.85378392 324.51424221 -60.84521484 325.85473633 C-60.84020145 327.19913575 -60.83563826 328.54353692 -60.83154297 329.88793945 C-60.81970972 333.18941573 -60.80322455 336.49080436 -60.78271484 339.79223633 C-56.81590457 339.28903305 -52.85084963 338.7737955 -48.88696289 338.24804688 C-46.88621752 337.98512458 -44.88427587 337.73135717 -42.88232422 337.4777832 C-30.07609462 335.78779132 -30.07609462 335.78779132 -18.53271484 330.29223633 C-16.49537154 328.93400746 -14.51056115 327.64299075 -12.36083984 326.46411133 C-7.31863478 323.19431774 -3.66643779 318.32324643 0.21728516 313.79223633 C0.75095703 313.17993164 1.28462891 312.56762695 1.83447266 311.93676758 C7.57899007 304.71152052 10.41631345 294.12713181 10.27978516 284.97973633 C10.27076172 284.18954102 10.26173828 283.3993457 10.25244141 282.58520508 C10.24083984 281.99352539 10.22923828 281.4018457 10.21728516 280.79223633 C9.55728516 280.46223633 8.89728516 280.13223633 8.21728516 279.79223633 C7.49034612 277.81334672 6.81912264 275.81269075 6.21728516 273.79223633 C4.97591797 273.77805664 3.73455078 273.76387695 2.45556641 273.74926758 C0.81360273 273.70235433 -0.82832322 273.65410701 -2.47021484 273.60473633 C-3.69514648 273.59603516 -3.69514648 273.59603516 -4.94482422 273.5871582 C-9.30484509 273.42829105 -11.26911469 273.18251997 -14.84130859 270.46801758 C-17.34749681 267.0138145 -17.24727962 264.9733193 -16.78271484 260.79223633 C-16.45271484 259.80223633 -16.12271484 258.81223633 -15.78271484 257.79223633 C-13.05964154 256.77757618 -10.34074324 256.62013775 -7.45458984 256.47583008 C-6.25576172 256.41298828 -6.25576172 256.41298828 -5.03271484 256.34887695 C-4.20771484 256.30956055 -3.38271484 256.27024414 -2.53271484 256.22973633 C-1.69224609 256.18655273 -0.85177734 256.14336914 0.01416016 256.09887695 C2.08169186 255.9931509 4.14946796 255.89222337 6.21728516 255.79223633 C6.21728516 252.49223633 6.21728516 249.19223633 6.21728516 245.79223633 C4.88052734 245.73165039 3.54376953 245.67106445 2.16650391 245.60864258 C0.41258694 245.52422946 -1.34131874 245.43958184 -3.09521484 245.35473633 C-3.97628906 245.31541992 -4.85736328 245.27610352 -5.76513672 245.2355957 C-6.61269531 245.19370117 -7.46025391 245.15180664 -8.33349609 245.10864258 C-9.50392456 245.05365601 -9.50392456 245.05365601 -10.69799805 244.99755859 C-12.78271484 244.79223633 -12.78271484 244.79223633 -15.78271484 243.79223633 C-17.2656211 240.28718519 -17.18218056 236.52058304 -16.78271484 232.79223633 C-13.90515051 229.57306979 -11.54674471 228.54153588 -7.35693359 228.18286133 C-5.72868691 228.11694041 -4.09954981 228.07052786 -2.47021484 228.04223633 C-1.63425781 228.01258789 -0.79830078 227.98293945 0.06298828 227.95239258 C2.11391001 227.88207526 4.16560077 227.8348466 6.21728516 227.79223633 C6.87728516 225.48223633 7.53728516 223.17223633 8.21728516 220.79223633 C8.87728516 220.79223633 9.53728516 220.79223633 10.21728516 220.79223633 C10.21728516 203.63223633 10.21728516 186.47223633 10.21728516 168.79223633 C9.22728516 168.46223633 8.23728516 168.13223633 7.21728516 167.79223633 C7.21728516 165.81223633 7.21728516 163.83223633 7.21728516 161.79223633 C5.97591797 161.75485352 4.73455078 161.7174707 3.45556641 161.67895508 C1.81361004 161.61327682 0.17168429 161.54683012 -1.47021484 161.47973633 C-2.28683594 161.45717773 -3.10345703 161.43461914 -3.94482422 161.41137695 C-8.65235589 161.20172979 -11.96432935 160.84242592 -15.78271484 157.79223633 C-17.27770397 154.80225808 -16.89848931 152.09180858 -16.78271484 148.79223633 C-16.28771484 147.30723633 -16.28771484 147.30723633 -15.78271484 145.79223633 C-13.05769577 144.88389664 -11.16037514 144.60863648 -8.33349609 144.47583008 C-7.4859375 144.43393555 -6.63837891 144.39204102 -5.76513672 144.34887695 C-4.8840625 144.30956055 -4.00298828 144.27024414 -3.09521484 144.22973633 C-1.75620117 144.16496094 -1.75620117 144.16496094 -0.39013672 144.09887695 C1.8121586 143.99288413 4.01470177 143.89206412 6.21728516 143.79223633 C6.21728516 140.49223633 6.21728516 137.19223633 6.21728516 133.79223633 C4.97591797 133.77805664 3.73455078 133.76387695 2.45556641 133.74926758 C0.81360273 133.70235433 -0.82832322 133.65410701 -2.47021484 133.60473633 C-3.69514648 133.59603516 -3.69514648 133.59603516 -4.94482422 133.5871582 C-9.3279616 133.42744874 -11.25959413 133.19851108 -14.82568359 130.42895508 C-16.78271484 127.79223633 -16.78271484 127.79223633 -17.40771484 124.79223633 C-16.54559569 120.65406437 -15.11410082 119.37951298 -11.78271484 116.79223633 C-8.67835653 116.06022633 -5.65045698 116.00232684 -2.47021484 115.97973633 C-1.63425781 115.95459961 -0.79830078 115.92946289 0.06298828 115.90356445 C2.11391925 115.84496643 4.16565109 115.8156714 6.21728516 115.79223633 C16.47561975 94.35529439 3.59730345 61.92302155 -3.78271484 40.79223633 C-5.2966742 36.72438685 -6.99764974 32.74814984 -8.78271484 28.79223633 C-9.38939684 27.37664501 -9.99393767 25.9601318 -10.59521484 24.54223633 C-11.18302734 23.18098633 -11.18302734 23.18098633 -11.78271484 21.79223633 C-14.86191174 21.79223633 -19.12704756 25.1781464 -21.88427734 26.68481445 Z M-60.78271484 78.79223633 C-60.78271484 125.65223633 -60.78271484 172.51223633 -60.78271484 220.79223633 C-60.28771484 219.80223633 -60.28771484 219.80223633 -59.78271484 218.79223633 C-59.20521484 218.56536133 -58.62771484 218.33848633 -58.03271484 218.10473633 C-52.98081729 215.15779609 -50.69652737 210.33122713 -49.15307617 204.90039062 C-46.90677674 195.39236979 -47.37207164 185.64565599 -47.41943359 175.93676758 C-47.41995323 173.82313538 -47.41943154 171.7095027 -47.41792297 169.59587097 C-47.41801226 165.18574727 -47.42835417 160.77580805 -47.4465332 156.36572266 C-47.4692605 150.73047349 -47.46975204 145.09549229 -47.46301556 139.46020985 C-47.45966544 135.10289656 -47.46632463 130.7456437 -47.47614479 126.3883419 C-47.47997593 124.31084192 -47.48115372 122.23333519 -47.47955894 120.15583229 C-47.47918566 117.24910409 -47.49188054 114.34271247 -47.50805664 111.43603516 C-47.50557922 110.58957428 -47.50310181 109.7431134 -47.50054932 108.8710022 C-47.57110183 100.87660556 -48.81594623 93.82423524 -52.78271484 86.79223633 C-53.44271484 86.79223633 -54.10271484 86.79223633 -54.78271484 86.79223633 C-55.03021484 86.02911133 -55.27771484 85.26598633 -55.53271484 84.47973633 C-56.73896028 81.33303304 -56.73896028 81.33303304 -60.78271484 78.79223633 Z M152.21728516 79.79223633 C142.89347953 89.62003144 141.06499001 99.15260362 141.07202148 112.29418945 C141.06866287 113.20909653 141.06530426 114.1240036 141.06184387 115.06663513 C141.05240155 118.06893294 141.05039441 121.07117462 141.04931641 124.07348633 C141.04610007 126.1728111 141.04273571 128.27213565 141.03923035 130.37145996 C141.03325655 134.76253784 141.03138874 139.15359608 141.03198242 143.54467773 C141.03208415 149.15993615 141.01841269 154.77506843 141.00121021 160.39029694 C140.99007302 164.72268244 140.98806372 169.05503756 140.98859215 173.38743591 C140.98741537 175.45739681 140.98301063 177.52735858 140.97525978 179.5973053 C140.96542155 182.49505387 140.96835267 185.39252989 140.97436523 188.2902832 C140.96874573 189.1372728 140.96312622 189.98426239 140.95733643 190.85691833 C140.9958636 198.19387004 142.33780799 204.60611527 145.65478516 211.22973633 C146.27160156 212.49624023 146.27160156 212.49624023 146.90087891 213.78833008 C148.12756229 216.10637133 148.12756229 216.10637133 151.21728516 216.79223633 C151.21728516 217.45223633 151.21728516 218.11223633 151.21728516 218.79223633 C151.87728516 218.79223633 152.53728516 218.79223633 153.21728516 218.79223633 C153.54728516 219.45223633 153.87728516 220.11223633 154.21728516 220.79223633 C154.21728516 174.26223633 154.21728516 127.73223633 154.21728516 79.79223633 C153.55728516 79.79223633 152.89728516 79.79223633 152.21728516 79.79223633 Z M23.21728516 124.79223633 C23.21728516 134.36223633 23.21728516 143.93223633 23.21728516 153.79223633 C26.51728516 153.79223633 29.81728516 153.79223633 33.21728516 153.79223633 C33.21728516 144.22223633 33.21728516 134.65223633 33.21728516 124.79223633 C29.91728516 124.79223633 26.61728516 124.79223633 23.21728516 124.79223633 Z M51.21728516 124.79223633 C51.21728516 134.36223633 51.21728516 143.93223633 51.21728516 153.79223633 C57.15728516 153.79223633 63.09728516 153.79223633 69.21728516 153.79223633 C69.21728516 144.22223633 69.21728516 134.65223633 69.21728516 124.79223633 C63.27728516 124.79223633 57.33728516 124.79223633 51.21728516 124.79223633 Z M-182.78271484 163.79223633 C-182.918203 166.52307535 -183.0170134 169.2471544 -183.09521484 171.97973633 C-183.13710937 172.74866211 -183.17900391 173.51758789 -183.22216797 174.30981445 C-183.31577937 178.67210593 -183.18815848 180.27699882 -180.38818359 183.83520508 C-178.05771351 185.9589411 -178.05771351 185.9589411 -175.78271484 185.91723633 C-172.78203965 184.22935653 -170.96377111 182.47852912 -168.78271484 179.79223633 C-168.18825437 176.98988224 -168.304754 174.32820846 -168.47021484 171.47973633 C-168.49277344 170.73916992 -168.51533203 169.99860352 -168.53857422 169.2355957 C-168.59713335 167.42026276 -168.68680598 165.60597952 -168.78271484 163.79223633 C-173.40271484 163.79223633 -178.02271484 163.79223633 -182.78271484 163.79223633 Z M28.21728516 170.79223633 C28.21728516 186.63223633 28.21728516 202.47223633 28.21728516 218.79223633 C40.42728516 218.79223633 52.63728516 218.79223633 65.21728516 218.79223633 C65.21728516 202.95223633 65.21728516 187.11223633 65.21728516 170.79223633 C53.00728516 170.79223633 40.79728516 170.79223633 28.21728516 170.79223633 Z M23.21728516 236.79223633 C23.21728516 246.03223633 23.21728516 255.27223633 23.21728516 264.79223633 C26.51728516 264.79223633 29.81728516 264.79223633 33.21728516 264.79223633 C33.21728516 255.55223633 33.21728516 246.31223633 33.21728516 236.79223633 C29.91728516 236.79223633 26.61728516 236.79223633 23.21728516 236.79223633 Z M51.21728516 236.79223633 C51.21728516 246.03223633 51.21728516 255.27223633 51.21728516 264.79223633 C57.15728516 264.79223633 63.09728516 264.79223633 69.21728516 264.79223633 C69.21728516 255.55223633 69.21728516 246.31223633 69.21728516 236.79223633 C63.27728516 236.79223633 57.33728516 236.79223633 51.21728516 236.79223633 Z M28.21728516 282.79223633 C27.666041 285.32664738 27.666041 285.32664738 27.34228516 288.41723633 C24.74165178 306.21410802 18.89615207 320.7543136 6.21728516 333.79223633 C5.22728516 334.28723633 5.22728516 334.28723633 4.21728516 334.79223633 C4.21728516 335.45223633 4.21728516 336.11223633 4.21728516 336.79223633 C3.67458984 337.04489258 3.13189453 337.29754883 2.57275391 337.55786133 C-0.24575368 339.03489018 -2.81507968 340.7880113 -5.47021484 342.54223633 C-21.54934314 352.52442077 -38.75459476 354.40551613 -57.18505859 356.40673828 C-59.70637431 356.51734672 -59.70637431 356.51734672 -60.78271484 357.79223633 C-61.57822247 370.09000173 -61.57271452 380.32297908 -53.34521484 390.16723633 C-52.17589723 391.39317353 -50.99030957 392.60398523 -49.78271484 393.79223633 C-49.04021484 394.53473633 -48.29771484 395.27723633 -47.53271484 396.04223633 C-38.23123604 401.9613592 -28.68878128 402.36848048 -17.98925781 402.29394531 C-16.42589839 402.29773603 -14.86254234 402.30324223 -13.29919434 402.31031799 C-9.08435477 402.32418961 -4.8699272 402.31316275 -0.65511084 402.29660678 C3.77158525 402.28267692 8.19825934 402.28922516 12.62496948 402.29273987 C20.05408305 402.29543519 27.48303441 402.28202303 34.91210938 402.25878906 C43.48449085 402.232164 52.05660164 402.230441 60.62901032 402.24217743 C68.90023943 402.25297819 77.17137122 402.24675138 85.44259262 402.23262215 C88.95194695 402.22688424 92.46122955 402.22692762 95.97058487 402.23168755 C100.10594406 402.23648055 104.24100897 402.22626013 108.37631226 402.20473289 C109.88833499 402.19919708 111.40038619 402.19867005 112.91241074 402.20368576 C126.35899721 402.24267822 136.95722454 400.02629088 147.21728516 390.79223633 C149.04245324 387.89884869 149.04245324 387.89884869 150.46728516 384.72973633 C151.21751953 383.16545898 151.21751953 383.16545898 151.98291016 381.56958008 C153.54684837 378.05071909 154.34202368 375.3803676 154.31494141 371.56176758 C154.31171875 370.75932617 154.30849609 369.95688477 154.30517578 369.13012695 C154.29679688 368.29674805 154.28841797 367.46336914 154.27978516 366.60473633 C154.27301758 365.33726562 154.27301758 365.33726562 154.26611328 364.04418945 C154.25433919 361.96017478 154.23640406 359.87619656 154.21728516 357.79223633 C148.10909047 355.77618892 142.09653005 355.14459563 135.71728516 354.47973633 C124.7308634 353.22547959 114.88021013 351.16345374 104.94384766 346.13598633 C102.42490848 344.64488103 102.42490848 344.64488103 100.21728516 344.79223633 C100.21728516 344.13223633 100.21728516 343.47223633 100.21728516 342.79223633 C94.79226971 339.65244429 94.79226971 339.65244429 89.21728516 336.79223633 C89.21728516 336.13223633 89.21728516 335.47223633 89.21728516 334.79223633 C88.0766334 333.65158457 86.9321184 332.5146176 85.77197266 331.39379883 C82.59131854 328.11724559 79.90518479 324.47543361 77.21728516 320.79223633 C76.68748047 320.0987207 76.15767578 319.40520508 75.61181641 318.69067383 C68.56796416 308.44177827 66.65645928 294.92871082 65.21728516 282.79223633 C60.26956492 282.62478087 55.32168795 282.46420515 50.37353516 282.31005859 C48.68955445 282.25662209 47.00563276 282.20129144 45.32177734 282.14404297 C42.90426358 282.06217781 40.48662083 281.98708161 38.06884766 281.91333008 C37.31358795 281.88629501 36.55832825 281.85925995 35.78018188 281.83140564 C31.87298813 281.62934907 31.87298813 281.62934907 28.21728516 282.79223633 Z M-148.78271484 325.79223633 C-150.6591466 330.23780128 -151.26895449 334.43101717 -149.72021484 339.04223633 C-148.07574265 342.70392774 -145.89400396 345.2254228 -142.78271484 347.79223633 C-138.71224137 349.14906082 -135.03879767 349.31695887 -130.78271484 348.79223633 C-125.81169994 346.25983251 -122.28840917 342.80362499 -119.78271484 337.79223633 C-119.27350298 331.68169398 -119.6941924 328.65426302 -123.78271484 323.79223633 C-128.27197966 319.74094857 -131.60229134 318.43569673 -137.72021484 318.50317383 C-142.2683906 319.14060755 -145.84609841 322.42685771 -148.78271484 325.79223633 Z " fill="#0E0E0E" transform="translate(281.78271484375,40.207763671875)"/>
<path d="M0 0 C0.99447802 -0.01169993 0.99447802 -0.01169993 2.00904649 -0.02363622 C4.22351553 -0.0435297 6.4362608 -0.02780474 8.65074158 -0.01205444 C10.24103802 -0.01883178 11.83132661 -0.02773557 13.42160034 -0.03860474 C17.73568076 -0.0613894 22.04916302 -0.05256591 26.36325383 -0.03670931 C30.87775484 -0.02404812 35.39220474 -0.03579082 39.90670776 -0.04364014 C47.48684383 -0.05273514 55.06673626 -0.04075178 62.64683533 -0.01693726 C71.41244104 0.01028363 80.17746545 0.00145243 88.94305712 -0.02606928 C96.46847419 -0.04875195 103.99371619 -0.05196489 111.5191564 -0.03887594 C116.01408923 -0.03107801 120.50874871 -0.03004929 125.00366402 -0.04655838 C129.22855311 -0.06099211 133.45269183 -0.05100225 137.67749977 -0.0220871 C139.22870385 -0.01547072 140.77997099 -0.01738347 142.33115005 -0.02840042 C144.44761445 -0.04204748 146.56166821 -0.02495689 148.67797852 0 C149.86244096 0.00188513 151.0469034 0.00377026 152.26725864 0.00571251 C155.27549744 0.63491821 155.27549744 0.63491821 157.66049862 2.9871006 C159.63970917 6.23204945 159.8214117 7.89150611 159.27549744 11.63491821 C157.96299744 14.44741821 157.96299744 14.44741821 156.27549744 16.63491821 C152.92830283 17.75064975 150.42650133 17.76076099 146.89866638 17.76190186 C145.92406928 17.76424184 145.92406928 17.76424184 144.92978334 17.7666291 C142.74877447 17.7706234 140.56783498 17.76745552 138.38682556 17.76431274 C136.82476765 17.76566748 135.26271006 17.76744782 133.70065308 17.7696228 C129.45488899 17.77418852 125.20914915 17.7724111 120.96338463 17.76924372 C116.5244935 17.76671569 112.08560447 17.7690589 107.64671326 17.77062988 C100.1917534 17.77245028 92.73680345 17.77004867 85.28184509 17.76528931 C76.65732483 17.75984694 68.0328282 17.76160968 59.40830851 17.76711571 C52.0095342 17.77165053 44.61076703 17.77229558 37.21199179 17.76967704 C32.79037177 17.76811631 28.36876286 17.76791496 23.94714355 17.77121353 C19.79067437 17.77409759 15.63423573 17.77210667 11.47776985 17.76631927 C9.95032362 17.76499456 8.42287483 17.76538093 6.89542961 17.76758194 C4.81436095 17.77030472 2.73339084 17.76689844 0.65232849 17.76190186 C-0.51353035 17.76152483 -1.67938919 17.7611478 -2.88057709 17.76075935 C-5.72450256 17.63491821 -5.72450256 17.63491821 -8.72450256 16.63491821 C-8.72450256 15.97491821 -8.72450256 15.31491821 -8.72450256 14.63491821 C-9.38450256 14.63491821 -10.04450256 14.63491821 -10.72450256 14.63491821 C-11.03006482 13.24627388 -11.29251064 11.84810558 -11.53700256 10.44741821 C-11.68782288 9.67011353 -11.83864319 8.89280884 -11.99403381 8.09194946 C-11.27436971 1.53153325 -5.71788693 0.00909739 0 0 Z " fill="#0C0C0C" transform="translate(254.72450256347656,409.3650817871094)"/>
<path d="M0 0 C0.66 0.33 1.32 0.66 2 1 C0.68938409 5.23429756 -0.94356259 9.07407404 -3 13 C-3.66 13 -4.32 13 -5 13 C-5.28875 13.639375 -5.5775 14.27875 -5.875 14.9375 C-7 17 -7 17 -9 18 C-11.28062828 14.57905758 -11.21925007 13.31812778 -11.125 9.3125 C-11.10695312 8.31863281 -11.08890625 7.32476562 -11.0703125 6.30078125 C-11.04710937 5.54152344 -11.02390625 4.78226562 -11 4 C-12.32 4 -13.64 4 -15 4 C-15.33 7.96 -15.66 11.92 -16 16 C-17.32 16 -18.64 16 -20 16 C-20 13.03 -20 10.06 -20 7 C-20.66 6.67 -21.32 6.34 -22 6 C-20.68 4.68 -19.36 3.36 -18 2 C-18.33 5.96 -18.66 9.92 -19 14 C-18.34 14 -17.68 14 -17 14 C-17.02320313 13.30132812 -17.04640625 12.60265625 -17.0703125 11.8828125 C-17.09738281 10.51769531 -17.09738281 10.51769531 -17.125 9.125 C-17.14820313 8.22007812 -17.17140625 7.31515625 -17.1953125 6.3828125 C-17 4 -17 4 -15 2 C-13.35 2.33 -11.7 2.66 -10 3 C-9.67 6.63 -9.34 10.26 -9 14 C-7.26043342 12.26043342 -7.62809614 9.8063378 -7.4375 7.4375 C-7.35371094 6.42558594 -7.26992187 5.41367187 -7.18359375 4.37109375 C-7.12300781 3.58863281 -7.06242188 2.80617187 -7 2 C-2.125 2.875 -2.125 2.875 -1 4 C-0.67 2.68 -0.34 1.36 0 0 Z " fill="#343434" transform="translate(246,252)"/>
<path d="M0 0 C0.33 0 0.66 0 1 0 C1.33 16.17 1.66 32.34 2 49 C2.66 47.02 3.32 45.04 4 43 C7.31371 40.79086 8.3446021 40.77518447 12.1875 40.875 C13.08855469 40.89304688 13.98960937 40.91109375 14.91796875 40.9296875 C15.60503906 40.95289063 16.29210937 40.97609375 17 41 C16.67 41.99 16.34 42.98 16 44 C15.37351562 43.96519531 14.74703125 43.93039063 14.1015625 43.89453125 C13.28429687 43.86746094 12.46703125 43.84039062 11.625 43.8125 C10.40683594 43.76029297 10.40683594 43.76029297 9.1640625 43.70703125 C8.44992187 43.80371094 7.73578125 43.90039062 7 44 C4.89172945 47.16240582 4.66182535 48.50657469 4.375 52.1875 C4.30023438 53.08855469 4.22546875 53.98960937 4.1484375 54.91796875 C4.07496094 55.94857422 4.07496094 55.94857422 4 57 C4.66 57 5.32 57 6 57 C6 54.69 6 52.38 6 50 C6.33 50 6.66 50 7 50 C7 52.97 7 55.94 7 59 C5.68 58.67 4.36 58.34 3 58 C1.75 55.4375 1.75 55.4375 1 53 C-0.485 53.495 -0.485 53.495 -2 54 C-2 53.34 -2 52.68 -2 52 C-1.34 52 -0.68 52 0 52 C0 34.84 0 17.68 0 0 Z " fill="#9E9E9E" transform="translate(292,209)"/>
<path d="M0 0 C0.33 0.99 0.66 1.98 1 3 C0.34 3 -0.32 3 -1 3 C-1 2.34 -1 1.68 -1 1 C-5.89388655 1.28937893 -5.89388655 1.28937893 -10 3.6875 C-11.40208688 6.9298259 -11.13144192 8.67638935 -10 12 C-7.55690423 13.91744593 -7.55690423 13.91744593 -5 15 C-5 14.34 -5 13.68 -5 13 C-6.32 12.67 -7.64 12.34 -9 12 C-9.625 9.1875 -9.625 9.1875 -10 6 C-9.34 5.01 -8.68 4.02 -8 3 C-5.5625 2.5625 -5.5625 2.5625 -3 3 C-1.1875 4.5 -1.1875 4.5 0 7 C0.23884872 9.72079845 0.13709297 12.25814068 0 15 C0.66 15 1.32 15 2 15 C2.33 14.01 2.66 13.02 3 12 C3 13.65 3 15.3 3 17 C1.68 17 0.36 17 -1 17 C-2.14814997 14.70370006 -2.30769809 12.92301914 -2.5625 10.375 C-2.68818359 9.14910156 -2.68818359 9.14910156 -2.81640625 7.8984375 C-2.87699219 7.27195312 -2.93757812 6.64546875 -3 6 C-4.65 5.67 -6.3 5.34 -8 5 C-8 6.98 -8 8.96 -8 11 C-6.35 11.33 -4.7 11.66 -3 12 C-3.33 13.65 -3.66 15.3 -4 17 C-9.4 16.52 -9.4 16.52 -11.875 14.375 C-13.452015 11.04574611 -13.38371319 8.64527529 -13 5 C-9.69533968 -1.9097443 -6.88573742 -0.99954253 0 0 Z " fill="#1F1F1F" transform="translate(219,251)"/>
<path d="M0 0 C11.22 0 22.44 0 34 0 C34 0.33 34 0.66 34 1 C26.08 1 18.16 1 10 1 C10.99 2.65 11.98 4.3 13 6 C16.59919423 6.89592083 16.59919423 6.89592083 20 7 C20 6.34 20 5.68 20 5 C18.576875 5.0928125 18.576875 5.0928125 17.125 5.1875 C16.09375 5.125625 15.0625 5.06375 14 5 C13.34 4.01 12.68 3.02 12 2 C16.455 2.99 16.455 2.99 21 4 C21 5.65 21 7.3 21 9 C13.79240611 9.61081304 13.79240611 9.61081304 10 6.6875 C8 4 8 4 8 1 C7.01 1 6.02 1 5 1 C5 3.31 5 5.62 5 8 C3.35 8.33 1.7 8.66 0 9 C0 6.69 0 4.38 0 2 C0.33 2 0.66 2 1 2 C1 3.65 1 5.3 1 7 C1.66 7 2.32 7 3 7 C3 5.02 3 3.04 3 1 C2.01 0.67 1.02 0.34 0 0 Z " fill="#272727" transform="translate(313,259)"/>
<path d="M0 0 C0 0.66 0 1.32 0 2 C0.66 2 1.32 2 2 2 C2 5.96 2 9.92 2 14 C1.67 14 1.34 14 1 14 C0.86722656 13.28972656 0.73445312 12.57945312 0.59765625 11.84765625 C0.42105469 10.92855469 0.24445313 10.00945312 0.0625 9.0625 C-0.11152344 8.14597656 -0.28554687 7.22945313 -0.46484375 6.28515625 C-0.77714988 4.04710156 -0.77714988 4.04710156 -2 3 C-3.66617115 2.95936168 -5.33388095 2.957279 -7 3 C-8.01540112 7.10223585 -8.01540112 7.10223585 -7 11 C-6.01 11.33 -5.02 11.66 -4 12 C-4 12.66 -4 13.32 -4 14 C-6.6331963 13.63680051 -7.84431322 13.14494976 -9.8125 11.3125 C-11.4482878 8.12701849 -11.00803439 6.38411544 -10 3 C-7.60360413 -0.99399312 -4.28125457 -0.24233516 0 0 Z " fill="#040404" transform="translate(218,252)"/>
<path d="M0 0 C1.53166168 4.08443115 0.63081652 7.79455657 0 12 C0.66 12 1.32 12 2 12 C1.97679687 11.30132812 1.95359375 10.60265625 1.9296875 9.8828125 C1.90261719 8.51769531 1.90261719 8.51769531 1.875 7.125 C1.85179687 6.22007812 1.82859375 5.31515625 1.8046875 4.3828125 C2 2 2 2 4 0 C5.65 0.33 7.3 0.66 9 1 C9 4.63 9 8.26 9 12 C8.67 12 8.34 12 8 12 C8 8.7 8 5.4 8 2 C6.68 2 5.36 2 4 2 C3.67 5.96 3.34 9.92 3 14 C1.68 14 0.36 14 -1 14 C-1 11.03 -1 8.06 -1 5 C-1.66 4.67 -2.32 4.34 -3 4 C-2.01 2.68 -1.02 1.36 0 0 Z " fill="#303030" transform="translate(227,254)"/>
<path d="M0 0 C1.32 0.66 2.64 1.32 4 2 C4 4.97 4 7.94 4 11 C3.67 10.01 3.34 9.02 3 8 C1.35 7.67 -0.3 7.34 -2 7 C-2 5.02 -2 3.04 -2 1 C-1.34 0.67 -0.68 0.34 0 0 Z " fill="#030303" transform="translate(213,255)"/>
<path d="M0 0 C2.375 -0.125 2.375 -0.125 5 0 C5.66 0.66 6.32 1.32 7 2 C6.75 4.0625 6.75 4.0625 6 6 C3.50907189 7.24546405 2.58919267 6.7767578 0 6 C0 4.02 0 2.04 0 0 Z " fill="#121212" transform="translate(338,262)"/>
<path d="M0 0 C2.97 0 5.94 0 9 0 C7.68 0.33 6.36 0.66 5 1 C5 3.31 5 5.62 5 8 C3.35 8.33 1.7 8.66 0 9 C0 6.69 0 4.38 0 2 C0.33 2 0.66 2 1 2 C1 3.65 1 5.3 1 7 C1.66 7 2.32 7 3 7 C3 5.02 3 3.04 3 1 C2.01 0.67 1.02 0.34 0 0 Z " fill="#3B3B3B" transform="translate(313,259)"/>
<path d="M0 0 C0.90105469 0.01804688 1.80210937 0.03609375 2.73046875 0.0546875 C3.41753906 0.07789063 4.10460937 0.10109375 4.8125 0.125 C4.4825 1.115 4.1525 2.105 3.8125 3.125 C3.19761719 3.09019531 2.58273437 3.05539063 1.94921875 3.01953125 C0.73685547 2.97892578 0.73685547 2.97892578 -0.5 2.9375 C-1.30050781 2.90269531 -2.10101563 2.86789063 -2.92578125 2.83203125 C-5.66601584 3.18698392 -6.47921079 4.01866282 -8.1875 6.125 C-8.1875 4.805 -8.1875 3.485 -8.1875 2.125 C-4.87379 -0.08414 -3.8428979 -0.09981553 0 0 Z " fill="#1D1D1D" transform="translate(304.1875,249.875)"/>
<path d="M0 0 C1.5625 1.0625 1.5625 1.0625 3 3 C2.6875 6.6875 2.6875 6.6875 2 10 C1.01 10 0.02 10 -1 10 C-1.02689216 8.52093108 -1.04634621 7.04172517 -1.0625 5.5625 C-1.07410156 4.73878906 -1.08570313 3.91507812 -1.09765625 3.06640625 C-1 1 -1 1 0 0 Z " fill="#1D1D1D" transform="translate(241,255)"/>
<path d="M0 0 C0.33 0.66 0.66 1.32 1 2 C-1.63886654 6.2026393 -4.36440339 9.56638098 -8 13 C-8.66 12.67 -9.32 12.34 -10 12 C-6.7 8.04 -3.4 4.08 0 0 Z " fill="#5D5D5D" transform="translate(284,350)"/>
<path d="M0 0 C3 1 3 1 4 3 C4.039992 4.99960012 4.04346799 7.00047242 4 9 C2.66666667 9 1.33333333 9 0 9 C0 6.03 0 3.06 0 0 Z " fill="#232323" transform="translate(293,235)"/>
<path d="M0 0 C0.99 0.66 1.98 1.32 3 2 C2 3 2 3 0.14233398 3.11352539 C-0.64842529 3.10828857 -1.43918457 3.10305176 -2.25390625 3.09765625 C-3.10791016 3.09443359 -3.96191406 3.09121094 -4.84179688 3.08789062 C-5.73962891 3.07951172 -6.63746094 3.07113281 -7.5625 3.0625 C-8.46419922 3.05798828 -9.36589844 3.05347656 -10.29492188 3.04882812 C-12.53001314 3.03700225 -14.76497437 3.0205222 -17 3 C-17 2.67 -17 2.34 -17 2 C-15.85660156 1.93941406 -14.71320313 1.87882812 -13.53515625 1.81640625 C-12.04425695 1.73201572 -10.55337225 1.64736698 -9.0625 1.5625 C-8.30775391 1.52318359 -7.55300781 1.48386719 -6.77539062 1.44335938 C-3.08055813 1.55961976 -3.08055813 1.55961976 0 0 Z " fill="#464646" transform="translate(386,283)"/>
<path d="M0 0 C0 3 0 3 -1.2421875 4.60546875 C-1.78101563 5.12753906 -2.31984375 5.64960938 -2.875 6.1875 C-3.40867188 6.71730469 -3.94234375 7.24710937 -4.4921875 7.79296875 C-6 9 -6 9 -8 9 C-8 8.34 -8 7.68 -8 7 C-7.34 7 -6.68 7 -6 7 C-5.7525 6.401875 -5.505 5.80375 -5.25 5.1875 C-3.83629988 2.71352479 -2.34944617 1.56629745 0 0 Z " fill="#626262" transform="translate(187,353)"/>
<path d="M0 0 C0.185625 0.9590625 0.185625 0.9590625 0.375 1.9375 C0.684375 2.9584375 0.684375 2.9584375 1 4 C1.66 4.33 2.32 4.66 3 5 C2.01 5.495 2.01 5.495 1 6 C0.31270746 8.11846285 0.31270746 8.11846285 -0.125 10.5625 C-0.29257812 11.38878906 -0.46015625 12.21507813 -0.6328125 13.06640625 C-0.75398438 13.70449219 -0.87515625 14.34257813 -1 15 C-1.33 15 -1.66 15 -2 15 C-1.85879286 13.06215735 -1.71187127 11.12473045 -1.5625 9.1875 C-1.48128906 8.10855469 -1.40007812 7.02960938 -1.31640625 5.91796875 C-1 3 -1 3 0 0 Z " fill="#6E6969" transform="translate(353,107)"/>
<path d="M0 0 C0.66 0.33 1.32 0.66 2 1 C-0.57784846 3.64752004 -2.91648098 5.94432065 -6 8 C-4.73058503 4.08597051 -3.48832306 2.20927127 0 0 Z " fill="#545454" transform="translate(210,72)"/>
<path d="M0 0 C0.66 0.33 1.32 0.66 2 1 C0.25 6.75 0.25 6.75 -2 9 C-2.33 7.35 -2.66 5.7 -3 4 C-2.34 4 -1.68 4 -1 4 C-0.67 2.68 -0.34 1.36 0 0 Z " fill="#707070" transform="translate(246,252)"/>
</svg>
